<svg width="28" height="30" viewBox="0 0 28 30" fill="none" xmlns="http://www.w3.org/2000/svg">
<path d="M9.8208 4.17911C9.8208 1.87105 11.6918 0 13.9999 0C16.308 0 18.179 1.87105 18.179 4.17911V19.1046H16.189C12.6719 19.1046 9.8208 16.2535 9.8208 12.7364V4.17911Z" fill="#45C9F9" fill-opacity="0.85"/>
<path d="M18.1792 25.1291C18.1792 27.4372 16.3082 29.3082 14.0001 29.3082C11.692 29.3082 9.82099 27.4372 9.82099 25.1291L9.82099 10.2036L11.811 10.2036C15.3281 10.2036 18.1792 13.0548 18.1792 16.5718L18.1792 25.1291Z" fill="#A76FD5" fill-opacity="0.86"/>
<path d="M18.1792 10.2036H23.6581C26.0561 10.2036 28.0001 12.1476 28.0001 14.5456V14.7627C28.0001 17.1607 26.0561 19.1046 23.6581 19.1046H18.1792V10.2036Z" fill="#45C9F9" fill-opacity="0.85"/>
<path d="M9.8208 19.1046L4.34186 19.1046C1.94387 19.1046 -9.42502e-05 17.1607 -9.40484e-05 14.7627L-9.40301e-05 14.5456C-9.38284e-05 12.1476 1.94387 10.2036 4.34186 10.2036L9.8208 10.2036L9.8208 19.1046Z" fill="#A76FD5" fill-opacity="0.86"/>
<path d="M26.3286 26.0517C26.3286 27.1308 25.4866 28.0056 24.448 28.0056C23.4094 28.0056 22.5674 27.1308 22.5674 26.0517C22.5674 24.9726 23.4094 24.0978 24.448 24.0978C25.4866 24.0978 26.3286 24.9726 26.3286 26.0517Z" fill="#76C8DB"/>
</svg>
