<svg width="20" height="28" viewBox="0 0 20 28" fill="none" xmlns="http://www.w3.org/2000/svg">
<path d="M19.7477 14.3964L16.3193 19.0504C16.1525 19.2769 15.933 19.3917 15.7136 19.3917C15.4942 19.3917 15.2748 19.2785 15.1079 19.0504C14.7731 18.5959 14.7731 17.859 15.1079 17.4045L17.0736 14.7362H6.57229C6.09917 14.7362 5.71518 14.2149 5.71518 13.5727C5.71518 12.9304 6.09917 12.4092 6.57229 12.4092H17.0736L15.1079 9.74086C14.7731 9.28632 14.7731 8.54943 15.1079 8.09489C15.4428 7.64035 15.9856 7.64035 16.3204 8.09489L19.7489 12.7489C20.0837 13.2034 20.0837 13.9403 19.7489 14.3949L19.7477 14.3964ZM7.42825 25.9849C7.42825 25.3427 7.04427 24.8214 6.57115 24.8214H3.14272C2.35533 24.8214 1.71421 23.9511 1.71421 22.8823V4.26618C1.71421 3.19731 2.35533 2.32701 3.14272 2.32701H6.57115C7.04427 2.32701 7.42825 1.80576 7.42825 1.1635C7.42825 0.52125 7.04427 0 6.57115 0H3.14272C1.40908 0 0 1.9128 0 4.26618V22.8823C0 25.2356 1.40908 27.1484 3.14272 27.1484H6.57115C7.04427 27.1484 7.42825 26.6272 7.42825 25.9849Z" fill="#EF4343"/>
</svg>
